<svg width="1671" height="139" viewBox="0 0 1671 139" fill="none" xmlns="http://www.w3.org/2000/svg">
<path d="M15.4265 138.366C15.3377 138.356 15.0366 138.324 14.7574 138.296C12.2088 138.04 9.48822 136.998 7.34961 135.458C4.14319 133.15 1.88367 129.789 0.941196 125.925C0.440357 123.872 0.340817 121.572 0.661126 119.456C1.51998 113.783 5.26896 108.923 10.4695 106.742C11.7674 106.198 13.0555 105.854 14.5728 105.646C15.4139 105.53 17.4622 105.53 18.3107 105.645C20.1102 105.888 21.6354 106.342 23.2024 107.1C24.9266 107.934 26.1199 108.793 27.5643 110.24C28.827 111.505 29.6067 112.558 30.5107 114.218L30.703 114.572L30.0215 115.076C29.0826 115.77 26.8804 117.341 26.1632 117.829L25.5707 118.231L25.327 117.701C25.0256 117.046 24.8111 116.658 24.4637 116.139C23.0756 114.066 20.862 112.586 18.4492 112.116C17.1725 111.868 15.6007 111.896 14.3421 112.189C13.0204 112.496 11.5852 113.187 10.4887 114.042C10.0468 114.387 9.2334 115.193 8.87552 115.642C6.94448 118.061 6.23321 121.144 6.89547 124.223C7.12478 125.289 7.71828 126.682 8.33744 127.607C9.97614 130.055 12.4879 131.624 15.333 131.976C15.836 132.038 17.0476 132.038 17.5505 131.976C20.0701 131.664 22.3982 130.355 23.9891 128.355C24.4576 127.766 24.784 127.257 25.1564 126.533C25.3196 126.215 25.4667 125.956 25.4834 125.956C25.5 125.956 26.66 126.774 28.0612 127.775L30.6087 129.594L30.3505 130.082C29.8148 131.095 28.8932 132.369 28.0348 133.282C26.5724 134.839 25.148 135.896 23.2946 136.801C21.6939 137.583 19.9978 138.082 18.1953 138.301C17.7912 138.35 15.7138 138.399 15.4265 138.366ZM37.2082 121.802V105.859H43.3919V117.303H59.5435V105.859H65.7273V137.746H59.5435V123.718H43.3919V137.746H37.2082V121.802ZM71.9748 134.92C72.664 133.365 75.8441 126.191 79.0417 118.976L84.8554 105.859L89.1933 105.859L93.5311 105.86L100.559 121.607C104.424 130.268 107.626 137.442 107.675 137.55L107.763 137.746H100.359L98.9292 134.586L97.4997 131.425L89.2254 131.436L80.9511 131.447L79.5376 134.597L78.1242 137.746H70.7214L71.9748 134.92ZM94.8844 124.992C94.8583 124.879 89.2404 112.322 89.2164 112.322C89.1992 112.322 83.8639 124.774 83.7787 125.013C83.7692 125.039 85.9026 125.056 89.3313 125.056C94.0676 125.056 94.897 125.046 94.8844 124.992ZM112.752 121.802V105.859L117.101 105.859L121.45 105.86L128.257 115.421L135.064 124.981L135.076 115.42L135.087 105.859H141.317V137.747L138.817 137.735L136.318 137.723L127.684 125.738C122.936 119.147 119.035 113.752 119.016 113.751C118.997 113.751 118.982 119.149 118.982 125.748V137.746H112.752V121.802ZM152.577 121.802V105.859H174.866V112.273H158.807V118.641H173.666V125.056H158.807V131.424H177.174V137.746H152.577V121.802ZM185.895 121.802V105.859H192.125V131.424H209.477V137.746H185.895V121.802ZM79.1348 97.7486C72.4786 97.4407 65.0665 95.4197 59.0911 92.2833C54.5037 89.8755 50.868 87.1812 47.0591 83.3665C44.0759 80.3789 41.8751 77.6267 40.012 74.5544L39.1965 73.2095L40.3535 72.5958C42.608 71.4001 52.8855 66.1374 52.9661 66.1374C53.0112 66.1374 53.4358 66.7153 53.9097 67.4217C59.2656 75.4046 67.6447 80.5976 77.45 82.011C79.1642 82.2581 84.3188 82.2187 86.1854 81.9443C88.2624 81.6389 90.7538 81.0725 92.3362 80.5459C92.4391 80.5116 92.2424 80.1921 91.7897 79.6585C88.2848 75.527 85.0898 69.8565 83.2923 64.5775C80.0409 55.0284 79.8094 44.7781 82.6278 35.1472C84.3779 29.1665 87.3899 23.3615 91.2044 18.6177C91.7727 17.9109 92.2377 17.2873 92.2377 17.232C92.2377 17.0438 89.2601 16.2512 87.3085 15.9199C84.2934 15.4082 79.5732 15.3447 76.8482 15.7793C72.2631 16.5106 67.6093 18.2278 63.9727 20.5302C59.9202 23.096 56.5408 26.3932 53.8441 30.4128L52.6533 32.1876L51.1376 31.3918C50.3039 30.9542 47.2072 29.3494 44.2559 27.8256C41.3046 26.3019 38.8808 25.047 38.8696 25.0372C38.8226 24.9958 40.6703 22.057 41.4308 20.9635C43.74 17.6434 47.8404 13.2462 50.8698 10.8415C58.7913 4.55343 67.5978 1.01207 77.5125 0.127651C79.3516 -0.03645 83.912 -0.0378805 85.6862 0.12502C91.9807 0.702879 97.3763 2.22912 102.951 5.00826L105.615 6.33647L106.507 5.82862C107.948 5.00853 110.509 3.82527 112.454 3.08063C117.91 0.991486 123.405 -0.00294688 129.476 6.55894e-06C133.716 0.0020832 137.253 0.418657 141.093 1.36814C149.767 3.51317 157.165 7.62704 163.538 13.8504C166.994 17.2244 169.702 20.6692 171.888 24.4724L172.22 25.0489L166.827 27.831C163.861 29.3612 160.758 30.9676 159.932 31.4008L158.43 32.1885L157.294 30.4757C151.692 22.0243 142.527 16.5223 132.497 15.5877C129.527 15.311 125.117 15.5657 122.437 16.1689C121.058 16.4794 118.818 17.1192 118.819 17.2027C118.819 17.2464 119.185 17.7314 119.633 18.2805C125.381 25.3336 128.97 33.9312 130.13 43.4257C130.407 45.6918 130.444 51.4775 130.196 53.7209C129.148 63.1947 125.566 71.9377 119.848 78.9761C118.552 80.5717 118.607 80.4613 119.023 80.6219C119.219 80.6978 120.138 80.9519 121.064 81.1867C125.774 82.3799 130.843 82.5485 135.602 81.6702C144.259 80.0727 152.056 74.9528 157.071 67.5726C157.537 66.8862 157.958 66.2787 158.007 66.2223C158.055 66.1661 159.211 66.6796 160.575 67.3636C163.278 68.7185 171.745 73.0997 171.836 73.1905C171.987 73.3418 169.289 77.3471 167.634 79.4276C166.067 81.3973 161.961 85.4989 159.999 87.0537C152.909 92.6724 144.952 96.1078 136.189 97.3343C126.126 98.7427 115.469 96.8566 106.798 92.1328L105.573 91.4652L104.053 92.2694C96.5222 96.2538 87.884 98.1532 79.1348 97.7486ZM107.248 70.0684C111.444 64.8736 114.063 58.5721 114.708 52.1146C114.925 49.9473 114.796 45.5325 114.459 43.5591C113.531 38.1286 111.545 33.4741 108.341 29.2207C107.737 28.4199 106.859 27.3491 106.388 26.8415L105.533 25.9184L104.739 26.779C103.693 27.9135 101.95 30.228 101.071 31.6489C96.6087 38.8641 95.1519 47.7282 97.0415 56.1647C98.2305 61.4737 100.964 66.8219 104.649 71.0463L105.497 72.019L105.868 71.6676C106.073 71.4744 106.693 70.7547 107.248 70.0684Z" fill="#166FB1"/>
<path d="M355.467 52.0012V17.0153C355.467 15.7189 355.597 14.9414 357.801 14.9414H387.473C392.657 14.9414 395.508 19.3478 397.582 27.6403L399.266 34.25H404.319C405.225 15.4618 406.002 7.29785 406.002 7.29785C406.002 7.29785 393.304 8.72278 385.788 8.72278H347.824L327.477 8.0746V13.5172L334.346 14.8128C339.14 15.7204 340.304 16.7558 340.696 21.1631C340.696 21.1631 341.086 34.1206 341.086 55.5023C341.086 76.881 340.696 89.7108 340.696 89.7108C340.696 93.5976 339.14 95.0225 334.346 95.9324L327.477 97.2288V102.668L347.824 102.022H381.774C389.419 102.022 407.171 102.668 407.171 102.668C407.558 98.0025 410.151 76.881 410.54 74.5515H405.746L400.692 86.0841C396.674 95.1526 390.844 95.8016 384.364 95.8016H365.055C358.576 95.8016 355.466 93.2096 355.466 87.6384V58.0936C355.466 58.0936 369.59 58.0935 374.513 58.4831C378.142 58.7433 380.343 59.7795 381.511 64.8325L383.067 71.5708H388.636L388.249 54.594L389.025 37.4909H383.455L381.642 45.0059C380.474 49.9296 379.698 50.8388 374.644 51.3553C368.943 52.0051 355.465 51.875 355.465 51.875V52.0035H355.467V52.0012ZM432.308 20.6442C430.493 28.678 428.679 34.8974 422.329 39.0444C418.442 41.6348 414.554 42.5409 413.001 42.671V47.5948H424.533V87.3751C424.533 98.5206 431.92 103.964 441.767 103.964C449.413 103.964 457.316 100.725 460.038 93.9848L457.316 90.486C456.02 92.69 451.876 95.9286 446.692 95.9286C440.991 95.9286 437.881 92.0402 437.881 82.1943V47.079L457.06 48.5055L458.096 39.6918L437.882 40.4701V20.7728L432.308 20.6442ZM473.256 81.8324L468.332 81.9618C468.591 84.8116 468.722 88.4413 468.722 91.8101C468.722 95.3089 468.592 98.5483 468.332 100.103C468.332 100.103 478.18 103.728 488.158 103.728C501.634 103.728 512.39 97.2488 512.39 84.5499C512.39 62.7833 479.736 66.0235 479.736 51.3784C479.736 45.2892 485.178 42.9558 491.139 42.9558C495.804 42.9558 499.691 44.6402 500.468 47.1044L503.708 56.8226L508.503 56.5639C508.893 51.38 509.151 45.4193 509.929 40.6256C505.781 38.8111 497.099 37.7727 491.661 37.7727C478.959 37.7727 468.724 43.3454 468.724 55.7856C468.724 77.4245 500.599 73.0188 500.599 88.9594C500.599 94.6584 497.099 98.6761 489.196 98.6761C481.942 98.6761 478.312 94.9194 476.889 91.1596L473.256 81.8324ZM551.356 96.8023C543.854 117.758 534.671 123.186 526.394 123.186C522.9 123.186 521.22 121.633 520.7 119.179L518.761 109.088L513.327 109.347C512.292 115.297 511.258 121.896 509.837 127.327C513.071 129.781 518.5 131.078 522.77 131.078C531.697 131.078 545.277 129.911 557.692 100.423L578.518 51.2737C580.201 47.263 580.845 46.875 585.76 44.9335L588.477 43.9012V39.3739L576.188 40.0205L562.996 39.3739V43.9012L566.357 44.9335C569.719 45.9704 571.274 47.263 571.274 49.5917C571.274 50.7549 570.884 51.9196 570.236 53.7287C568.296 58.6471 556.267 87.8771 553.037 94.0872L556.266 92.9209C550.574 78.8232 541.912 55.2806 540.617 51.2745C540.359 50.4978 540.229 49.8511 540.229 49.2014C540.229 47.1329 541.652 45.4508 544.757 44.8049L549.025 43.9019V39.3746L531.303 40.0213L517.205 39.3746V43.9019L519.534 44.6772C522.767 45.7118 523.544 46.6179 525.484 51.1444C536.216 75.7209 541.264 89.1703 548.116 106.763L551.356 96.8023Z" fill="#166FB1"/>
<path fill-rule="evenodd" clip-rule="evenodd" d="M739.202 27.2921C722.577 46.8152 706.638 71.0255 706.478 89.1219C706.416 95.9307 708.59 101.875 713.803 106.377C721.307 112.861 729.575 115.148 737.802 115.161C749.825 115.178 761.763 110.327 771.111 106.587C786.854 100.292 960.874 24.7213 960.874 24.7213C962.553 23.8801 962.238 22.8319 960.137 23.3552C959.289 23.5672 770.689 74.6781 770.689 74.6781C767.116 75.6885 763.425 76.2169 759.712 76.2495C745.218 76.3353 732.32 68.2899 732.425 51.3359C732.465 44.702 734.496 36.702 739.202 27.2921Z" fill="#166FB1"/>
<path fill-rule="evenodd" clip-rule="evenodd" d="M1143.03 102.825C1146.63 106.396 1151.34 108.681 1156.72 109.466C1158.65 109.748 1164.74 109.754 1166.73 109.476C1167.67 109.345 1169.3 108.987 1170.36 108.682C1180.12 105.848 1186.79 98.3301 1189.08 87.5672C1189.63 84.9377 1189.86 78.5673 1189.51 75.5515C1188.35 65.6735 1184.17 58.4435 1177.27 54.3746C1169.6 49.8534 1157.95 49.5918 1149.68 53.7551C1143.7 56.7614 1138.81 62.5517 1136.65 69.2038C1134.41 76.0679 1134.41 85.0766 1136.65 92.0837C1138.08 96.5715 1140.03 99.8468 1143.03 102.825ZM1178.28 104.204C1175.47 106.306 1172.32 107.713 1168.38 108.635C1166.98 108.964 1165.47 109.098 1162.5 109.157C1160.3 109.201 1158.25 109.191 1157.94 109.134C1154.37 108.469 1153.39 108.24 1152.05 107.764C1148.28 106.419 1145.65 104.723 1142.94 101.896C1138.03 96.768 1135.5 89.4489 1135.5 80.3823C1135.5 71.6426 1138.31 64.196 1143.6 58.8581C1148.54 53.8746 1154.96 51.3968 1162.94 51.3968C1170.46 51.3968 1176.29 53.4878 1180.9 57.8498C1186.59 63.2235 1189.54 71.5578 1189.2 81.3347C1188.85 91.2523 1185.11 99.0916 1178.28 104.204ZM1152.42 90.7947C1153.72 98.772 1156.3 103.814 1159.95 105.472C1161.42 106.14 1164.12 106.104 1165.64 105.393C1169.83 103.436 1172.08 97.8017 1172.82 87.414C1173.84 72.9385 1171.47 60.8563 1166.78 56.6076C1164.66 54.6944 1161.38 54.0681 1159 55.1267C1155.54 56.671 1153.32 61.2427 1152.27 68.9812C1151.52 74.4917 1151.6 85.7377 1152.42 90.7947ZM1169.33 100.87C1168.3 102.853 1166.36 104.676 1164.78 105.145C1158.71 106.951 1154.36 101.157 1152.68 89.0138C1152.14 85.0902 1152.14 74.3991 1152.69 69.9114C1153.88 60.1487 1156.88 55.1906 1161.62 55.183C1163.76 55.1797 1164.94 55.703 1166.61 57.3884C1170.59 61.4016 1172.48 69.0666 1172.45 81.1121C1172.42 90.7237 1171.47 96.7767 1169.33 100.87ZM1240.84 107.581C1243.19 108.117 1249.93 109.24 1252.13 109.464C1255.37 109.792 1262.9 109.746 1265.3 109.384C1275.72 107.811 1283.57 101.756 1287.23 92.4754C1288.2 90.0161 1289.13 86.2261 1289.46 83.4132C1289.84 80.1132 1289.63 73.5242 1289.05 70.8732C1286.84 60.7105 1280.51 53.6921 1271.95 51.9179C1270.64 51.6468 1269.46 51.5909 1266.91 51.6799C1263.07 51.8139 1260.44 52.3889 1257.57 53.7139C1256.62 54.1535 1255.79 54.5132 1255.73 54.5132C1255.67 54.5132 1255.68 48.7037 1255.75 41.6032C1255.86 31.5986 1255.83 28.6921 1255.62 28.6885C1254.9 28.6763 1232.21 33.0123 1231.96 33.2104C1231.78 33.3579 1231.7 33.8392 1231.74 34.5675C1231.77 35.0358 1231.76 35.3169 1231.89 35.517C1232.1 35.857 1232.69 35.9626 1234.43 36.3546C1235.26 36.542 1236.24 36.9046 1236.59 37.1604C1237.52 37.819 1238.29 39.2445 1238.82 41.2882C1239.24 42.9013 1239.29 44.0541 1239.49 54.9582C1239.69 66.0893 1239.65 77.5352 1239.34 98.5017L1239.21 107.21L1240.84 107.581ZM1280.57 101.479C1276.38 105.597 1271.43 107.919 1264.68 108.933C1259.28 109.745 1250.63 109.103 1241.96 107.245L1239.66 106.754L1239.84 102.503C1240.12 95.3328 1240.06 46.7594 1239.75 43.9401C1239.37 40.4019 1238.8 38.7067 1237.51 37.379C1236.47 36.2952 1235.96 36.0739 1233.15 35.4531C1232.33 35.2726 1232.27 35.2023 1232.22 34.4257C1232.17 33.7285 1232.24 33.5732 1232.65 33.4775C1232.92 33.4147 1237.74 32.5103 1243.36 31.4679C1248.98 30.4256 1253.98 29.492 1254.47 29.3937L1255.36 29.2147L1255.28 42.1977C1255.2 53.5325 1255.23 55.1808 1255.52 55.1808C1255.7 55.1808 1256.72 54.7732 1257.78 54.2751C1262.03 52.2762 1267.63 51.566 1271.98 52.4728C1277.78 53.6817 1282.89 57.7868 1285.88 63.6391C1288.09 67.959 1288.95 71.4412 1289.16 76.7717C1289.55 87.1255 1286.63 95.5264 1280.57 101.479ZM1255.69 105.158C1255.83 105.324 1256.31 105.499 1256.76 105.547C1258.76 105.759 1261.02 105.685 1262.07 105.372C1263.69 104.888 1265.78 103.405 1267.03 101.837C1269.62 98.6035 1271.48 93.5984 1272.5 87.1129C1272.99 84.0067 1273.05 75.2784 1272.61 72.7651C1271.24 65.0501 1268.6 60.3363 1264.58 58.4281C1262.58 57.4777 1259.75 57.3601 1257.13 58.1174L1255.35 58.6309L1255.15 65.6424C1254.9 74.4824 1255.31 104.698 1255.69 105.158ZM1265.25 102.874C1263.9 104.087 1262.65 104.73 1261.04 105.037C1259.87 105.259 1259.52 105.265 1257.4 105.099C1256.5 105.028 1256.3 104.926 1256.12 104.449C1255.83 103.7 1255.5 77.6106 1255.64 67.1896L1255.74 59.0542L1257.21 58.62C1258.2 58.3297 1259.35 58.1857 1260.7 58.1857C1262.58 58.1857 1262.82 58.2409 1264.4 59.0255C1268.22 60.9171 1270.84 65.6148 1272.06 72.7622C1272.51 75.405 1272.56 82.6199 1272.16 85.7862C1271.16 93.5603 1268.62 99.835 1265.25 102.874ZM1294.52 88.0141C1297.1 99.5308 1304.98 107.362 1316 109.353C1318.43 109.792 1323.94 109.802 1326.39 109.372C1329.89 108.758 1333.93 107.198 1336.47 105.474C1339.58 103.37 1342.77 100.207 1342.77 99.2263C1342.77 98.6275 1341.7 97.2495 1341.24 97.2495C1341.03 97.2495 1340.17 97.7006 1339.32 98.2524C1336.28 100.222 1333.37 101.03 1329.33 101.03C1323.75 101.03 1320.22 99.6389 1316.67 96.0446C1315.09 94.4538 1314.45 93.5948 1313.63 92.0189C1311.84 88.5523 1310.88 84.5645 1310.73 80.0562L1310.67 78.1101L1327.11 78.0529L1343.55 77.9959L1343.62 76.883C1343.66 76.2709 1343.58 74.6685 1343.44 73.3216C1342.42 63.3194 1338.37 56.4324 1331.51 52.9832C1325.4 49.9197 1315.98 50.1403 1309.09 53.5078C1302.55 56.6984 1298.06 62.0218 1295.55 69.5341C1294.24 73.4467 1293.83 76.5956 1293.96 81.6686C1294.04 84.8752 1294.19 86.533 1294.52 88.0141ZM1339.74 102.157C1336.1 105.614 1331.03 108.089 1325.88 108.925C1323.13 109.373 1319.01 109.335 1316.22 108.836C1305.21 106.867 1297.54 99.1784 1294.95 87.5037C1294.55 85.6658 1294.47 84.6408 1294.47 80.6672C1294.47 76.6642 1294.54 75.6732 1294.96 73.767C1296.36 67.442 1298.65 62.9419 1302.5 58.936C1307.34 53.9116 1313.58 51.397 1321.24 51.397C1324.46 51.397 1326.91 51.7957 1329.5 52.7428C1336.01 55.1222 1340.58 61.0375 1342.3 69.3333C1342.73 71.396 1343.21 75.3313 1343.21 76.7953V77.4395L1326.94 77.443C1317.94 77.4446 1310.53 77.5341 1310.36 77.6425C1310.11 77.8018 1310.08 78.3354 1310.21 80.4771C1310.52 85.5777 1311.55 89.5464 1313.46 92.9444C1314.86 95.434 1317.66 98.2021 1320 99.4059C1323.52 101.22 1327.33 101.912 1331.46 101.487C1335 101.124 1336.51 100.612 1339.52 98.7595C1339.54 98.7456 1339.56 98.7318 1339.59 98.7182C1340.61 98.0894 1341.05 97.8173 1341.37 97.9215C1341.61 98.001 1341.79 98.2996 1342.09 98.8262C1342.1 98.8411 1342.11 98.8563 1342.12 98.8717C1342.4 99.3505 1341.73 100.264 1339.74 102.157ZM1310.91 67.4231C1310.5 69.4753 1310.09 73.4371 1310.26 73.708C1310.38 73.9046 1320.34 73.7735 1324.97 73.5146L1327.29 73.3855L1327.15 69.9036C1326.88 62.8496 1325.5 58.0842 1323.1 55.865C1322.21 55.0383 1321 54.517 1319.98 54.5144C1319.73 54.5137 1318.99 54.6733 1318.33 54.8689C1317.37 55.1534 1316.84 55.5222 1315.67 56.7053C1313.49 58.9047 1311.9 62.4765 1310.91 67.4231ZM1326.84 72.9374L1322.98 73.0721C1320.85 73.146 1317.24 73.2368 1314.94 73.2744L1310.78 73.3419L1310.78 72.4415C1310.79 71.9462 1310.93 70.6397 1311.1 69.5379C1312.49 60.5738 1315.82 55.1944 1320 55.1897C1323.84 55.1852 1326.21 60.4864 1326.7 70.1865L1326.84 72.9374ZM1348.08 106.859C1350.17 107.763 1356.47 109.144 1360.43 109.569C1360.92 109.622 1363.62 109.639 1366.43 109.609C1371.3 109.555 1371.65 109.522 1374.11 108.881C1381.35 106.985 1386.03 102.944 1388.11 96.8047C1388.75 94.9219 1388.84 94.3456 1388.93 91.541C1389.05 87.8035 1388.71 85.8619 1387.49 83.4308C1385.62 79.6878 1382.19 77.1267 1374.98 74.11C1369.1 71.6469 1366.14 69.9412 1364.34 67.9651C1362.88 66.3618 1362.45 65.0654 1362.59 62.6673C1362.72 60.4539 1363.27 59.1357 1364.65 57.6515C1366.43 55.7488 1368.87 55.0822 1371.8 55.7023C1376.6 56.7197 1379.68 60.0503 1382.33 67.0894C1383.27 69.6006 1383.39 69.6799 1385.09 69.0473L1386.16 68.6471L1386.12 65.7537C1386.1 64.1622 1386.02 60.8207 1385.94 58.3279L1385.8 53.7956L1385 53.456C1380.61 51.5936 1372.23 50.4337 1366.77 50.9327C1360.58 51.4994 1356.03 53.4711 1352.52 57.1088C1349.04 60.7234 1347.47 64.9655 1347.74 69.9973C1347.98 74.1616 1349.2 77.1512 1351.77 79.778C1354.14 82.2128 1356.13 83.3641 1361.85 85.6013C1371.08 89.2123 1373.52 91.3511 1373.5 95.8029C1373.48 99.5617 1371.49 102.314 1367.86 103.596C1366.57 104.054 1363.29 104.05 1361.54 103.588C1356.96 102.378 1353.45 98.3982 1350.45 91.0173L1349.69 89.1253L1348.79 89.1671C1348.29 89.1903 1347.61 89.3418 1347.27 89.5039L1346.66 89.7988L1346.72 93.0234C1346.75 94.797 1346.84 98.5367 1346.91 101.333L1347.05 106.418L1348.08 106.859ZM1388.11 94.6899C1386.51 102.438 1380.42 107.51 1370.98 108.946C1368.38 109.342 1363.1 109.328 1359.65 108.916C1355.22 108.385 1348.82 106.865 1347.83 106.106C1347.5 105.852 1347.44 104.938 1347.3 97.98L1347.15 90.1405L1347.78 89.9016C1349.14 89.3812 1349.2 89.4267 1350.1 91.6196C1353.55 100.026 1357.78 104.009 1363.79 104.501C1368.21 104.863 1371.59 103.091 1373.28 99.5207C1373.92 98.1543 1373.98 97.8427 1373.98 95.8033C1373.98 93.6865 1373.94 93.5078 1373.21 92.1544C1372.7 91.2027 1372.01 90.3686 1371.13 89.6365C1369.63 88.3907 1365.69 86.4179 1361.87 85.0052C1357.02 83.21 1354.17 81.5335 1351.98 79.1837C1349.43 76.453 1348.28 73.3272 1348.26 69.0929C1348.25 66.1107 1348.67 64.2033 1349.89 61.7291C1352.18 57.0734 1356.57 53.7255 1362.49 52.116C1364.53 51.5617 1364.94 51.5295 1369.87 51.5241C1374.01 51.5195 1375.55 51.6034 1377.31 51.9277C1379.65 52.3588 1383.2 53.3264 1384.56 53.9034L1385.37 54.2455L1385.53 61.1786C1385.62 64.992 1385.63 68.1807 1385.54 68.2647C1385.46 68.3488 1384.99 68.5358 1384.5 68.6802C1383.73 68.9097 1383.6 68.8961 1383.49 68.5727C1382.77 66.4882 1381.29 63.11 1380.57 61.9067C1378.31 58.1252 1375.81 56.0798 1372.49 55.2941C1369.73 54.6437 1367.37 54.948 1365.48 56.1953C1363.23 57.6851 1362.05 60.0744 1362.03 63.1941C1362.01 65.2624 1362.39 66.4548 1363.57 68.0056C1365 69.8829 1368.49 71.9732 1374.31 74.439C1382.15 77.7591 1385.32 80.1105 1387.19 84.0058C1388.52 86.7881 1388.88 90.9485 1388.11 94.6899ZM1189.53 106.467C1189.48 107.547 1189.55 108.06 1189.75 108.189C1189.91 108.291 1197.44 108.35 1206.48 108.32L1222.92 108.267L1222.99 106.542C1223.02 105.594 1222.97 104.817 1222.87 104.817C1221.6 104.816 1217.68 104.279 1217.07 104.02C1215.21 103.244 1214.31 101.577 1213.93 98.1926C1213.47 94.2194 1213.2 84.3405 1213.33 76.2417C1213.46 68.0637 1213.46 68.0307 1213.97 67.4832C1215.16 66.2028 1218.18 65.2059 1220.88 65.2001C1223.05 65.1954 1225.28 65.7552 1227.66 66.9004C1228.8 67.4498 1229.86 67.8531 1230 67.7974C1230.3 67.6833 1235.69 53.4039 1235.69 52.7308C1235.69 51.7296 1232.63 50.7288 1229.57 50.7288C1226.99 50.7288 1225.6 51.0151 1223.51 51.9746C1219.7 53.7222 1216.84 56.5851 1214.29 61.1966L1213.49 62.6372L1213.59 60.0775C1213.65 58.6696 1213.74 56.0402 1213.8 54.2346L1213.91 50.9514H1213.36C1212.66 50.9514 1190.65 55.3591 1189.99 55.6329C1189.55 55.8114 1189.49 56.003 1189.49 57.0636C1189.49 58.1545 1189.54 58.2999 1189.99 58.3927C1190.26 58.4501 1191.27 58.6482 1192.23 58.833C1194.18 59.2074 1194.76 59.5099 1195.56 60.5741C1197.04 62.5373 1197.34 66.0009 1197.33 80.667C1197.32 92.6588 1197.07 98.6304 1196.5 100.497C1195.8 102.788 1194.57 103.958 1192.42 104.361C1191.72 104.491 1190.8 104.672 1190.38 104.763L1189.6 104.929L1189.53 106.467ZM1222.59 105.301V106.506V107.711H1189.91L1189.98 106.543L1190.04 105.374L1192.02 104.988C1193.1 104.776 1194.3 104.422 1194.68 104.201C1195.71 103.605 1196.73 101.927 1197.13 100.185C1197.9 96.7778 1198.17 71.822 1197.5 65.4202C1196.99 60.5104 1195.77 58.831 1192.33 58.277C1190.66 58.0064 1190.15 57.9394 1190 57.6704C1189.92 57.5386 1189.93 57.3584 1189.93 57.0821C1189.93 56.663 1190.02 56.2652 1190.13 56.198C1190.39 56.0355 1191.92 55.713 1202.93 53.4998C1208.06 52.4679 1212.5 51.5666 1212.79 51.4972L1213.33 51.3708L1213.18 57.505C1213.05 62.4064 1213.08 63.6389 1213.31 63.6373C1213.46 63.6362 1214.07 62.7574 1214.65 61.6845C1218.18 55.2217 1223.08 51.5491 1228.59 51.2283C1230.66 51.1086 1232.26 51.3619 1234.1 52.1013C1234.96 52.4467 1235.26 52.6729 1235.18 52.9324C1235.03 53.5047 1229.9 67.066 1229.81 67.1582C1229.77 67.2043 1229 66.8819 1228.1 66.4421C1224.98 64.9098 1221 64.3467 1217.88 64.9984C1216.34 65.3192 1214.17 66.3533 1213.47 67.0945L1212.92 67.6819V80.407C1212.92 96.7108 1213.25 100.735 1214.76 102.915C1215.81 104.42 1216.89 104.819 1220.87 105.155L1222.59 105.301Z" fill="#166FB1"/>
<path d="M1120.18 106.487C1120.18 105.814 1120.12 105.263 1120.04 105.263C1118.98 105.263 1114.05 104.197 1113.26 103.797C1110.44 102.374 1109.13 98.9912 1108.63 91.7845C1108.27 86.6615 1107.91 71.6108 1108.14 71.378C1108.35 71.167 1117.75 71.542 1118.84 71.8051C1121.88 72.5332 1124.22 75.5248 1125.39 80.1753L1125.91 82.2251L1127.26 82.2916L1128.62 82.3577V56.5165H1127.17C1125.82 56.5165 1125.73 56.549 1125.73 57.018C1125.73 57.8614 1124.89 60.5302 1124.09 62.2132C1122.84 64.8491 1121.08 66.4401 1118.84 66.9572C1118.29 67.0843 1115.7 67.2877 1113.08 67.4095C1109.38 67.5811 1108.27 67.57 1108.13 67.3601C1107.87 66.9721 1108.46 37.6661 1108.75 36.3043L1108.86 35.791L1117.02 35.8591L1125.17 35.9275L1127.07 36.6086C1131.47 38.1863 1134.63 41.4078 1137.28 46.9989C1137.87 48.2552 1138.63 50.084 1138.97 51.0636C1139.3 52.043 1139.6 52.8754 1139.63 52.9135C1139.66 52.9516 1140.39 52.7675 1141.25 52.5044L1142.82 52.0261L1142.71 44.7559C1142.65 40.7574 1142.54 35.9582 1142.47 34.0914L1142.34 30.6969H1080.39L1080.46 32.0872L1080.52 33.4775L1082.52 33.7279C1085.19 34.062 1086.17 34.3533 1087.24 35.1328C1088.87 36.3145 1089.87 38.0503 1090.5 40.7845C1091.48 45.0322 1091.83 54.6116 1091.67 72.5432C1091.5 91.4905 1091.26 95.4309 1090.05 99.2536C1089.06 102.398 1087.22 104.064 1084.17 104.569C1083.33 104.707 1082.14 104.929 1081.53 105.061L1080.41 105.3V107.712H1120.18V106.487H1120.18Z" fill="#166FB1"/>
<path fill-rule="evenodd" clip-rule="evenodd" d="M1168.38 108.635C1172.32 107.713 1175.47 106.306 1178.28 104.204C1185.11 99.0916 1188.85 91.2523 1189.2 81.3347C1189.54 71.5578 1186.59 63.2235 1180.9 57.8498C1176.29 53.4878 1170.46 51.3968 1162.94 51.3968C1154.96 51.3968 1148.54 53.8746 1143.6 58.8581C1138.31 64.196 1135.5 71.6426 1135.5 80.3823C1135.5 89.4489 1138.03 96.768 1142.94 101.896C1145.65 104.723 1148.28 106.419 1152.05 107.764C1153.39 108.24 1154.37 108.469 1157.94 109.134C1158.25 109.191 1160.3 109.201 1162.5 109.157C1165.47 109.098 1166.98 108.964 1168.38 108.635ZM1152.42 90.7947C1153.72 98.772 1156.3 103.814 1159.95 105.472C1161.42 106.14 1164.12 106.104 1165.64 105.393C1169.83 103.436 1172.08 97.8017 1172.82 87.414C1173.84 72.9385 1171.47 60.8563 1166.78 56.6076C1164.66 54.6944 1161.38 54.0681 1159 55.1267C1155.54 56.671 1153.32 61.2427 1152.27 68.9812C1151.52 74.4917 1151.6 85.7377 1152.42 90.7947Z" fill="#166FB1"/>
<path d="M1222.59 106.506V105.301L1220.87 105.155C1216.89 104.819 1215.81 104.42 1214.76 102.915C1213.25 100.735 1212.92 96.7108 1212.92 80.407V67.6819L1213.47 67.0945C1214.17 66.3533 1216.34 65.3192 1217.88 64.9984C1221 64.3467 1224.98 64.9098 1228.1 66.4421C1229 66.8819 1229.77 67.2043 1229.81 67.1582C1229.9 67.066 1235.03 53.5047 1235.18 52.9324C1235.26 52.6729 1234.96 52.4467 1234.1 52.1013C1232.26 51.3619 1230.66 51.1086 1228.59 51.2283C1223.08 51.5491 1218.18 55.2217 1214.65 61.6845C1214.07 62.7574 1213.46 63.6362 1213.31 63.6373C1213.08 63.6389 1213.05 62.4064 1213.18 57.505L1213.33 51.3708L1212.79 51.4972C1212.5 51.5666 1208.06 52.4679 1202.93 53.4998C1191.92 55.713 1190.39 56.0355 1190.13 56.198C1190.02 56.2652 1189.93 56.663 1189.93 57.0821C1189.93 57.3584 1189.92 57.5386 1190 57.6704C1190.15 57.9394 1190.66 58.0064 1192.33 58.277C1195.77 58.831 1196.99 60.5104 1197.5 65.4202C1198.17 71.822 1197.9 96.7778 1197.13 100.185C1196.73 101.927 1195.71 103.605 1194.68 104.201C1194.3 104.422 1193.1 104.776 1192.02 104.988L1190.04 105.374L1189.98 106.543L1189.91 107.711H1222.59V106.506Z" fill="#166FB1"/>
<path fill-rule="evenodd" clip-rule="evenodd" d="M1264.68 108.933C1271.43 107.919 1276.38 105.597 1280.57 101.479C1286.63 95.5264 1289.55 87.1255 1289.16 76.7717C1288.95 71.4412 1288.09 67.959 1285.88 63.6391C1282.89 57.7868 1277.78 53.6817 1271.98 52.4728C1267.63 51.566 1262.03 52.2762 1257.78 54.2751C1256.72 54.7732 1255.7 55.1808 1255.52 55.1808C1255.23 55.1808 1255.2 53.5325 1255.28 42.1977L1255.36 29.2147L1254.47 29.3937C1253.98 29.492 1248.98 30.4256 1243.36 31.4679C1237.74 32.5103 1232.92 33.4147 1232.65 33.4775C1232.24 33.5732 1232.17 33.7285 1232.22 34.4257C1232.27 35.2023 1232.33 35.2726 1233.15 35.4531C1235.96 36.0739 1236.47 36.2952 1237.51 37.379C1238.8 38.7067 1239.37 40.4019 1239.75 43.9401C1240.06 46.7594 1240.12 95.3328 1239.84 102.503L1239.66 106.754L1241.96 107.245C1250.63 109.103 1259.28 109.745 1264.68 108.933ZM1255.69 105.158C1255.83 105.324 1256.31 105.499 1256.76 105.547C1258.76 105.759 1261.02 105.685 1262.07 105.372C1263.69 104.888 1265.78 103.405 1267.03 101.837C1269.62 98.6035 1271.48 93.5984 1272.5 87.1129C1272.99 84.0067 1273.05 75.2784 1272.61 72.7651C1271.24 65.0501 1268.6 60.3363 1264.58 58.4281C1262.58 57.4777 1259.75 57.3601 1257.13 58.1174L1255.35 58.6309L1255.15 65.6424C1254.9 74.4824 1255.31 104.698 1255.69 105.158Z" fill="#166FB1"/>
<path d="M1370.98 108.946C1380.42 107.51 1386.51 102.438 1388.11 94.6899C1388.88 90.9485 1388.52 86.7881 1387.19 84.0058C1385.32 80.1105 1382.15 77.7591 1374.31 74.439C1368.49 71.9732 1365 69.8829 1363.57 68.0056C1362.39 66.4548 1362.01 65.2624 1362.03 63.1941C1362.05 60.0744 1363.23 57.6851 1365.48 56.1953C1367.37 54.948 1369.73 54.6437 1372.49 55.2941C1375.81 56.0798 1378.31 58.1252 1380.57 61.9067C1381.29 63.11 1382.77 66.4882 1383.49 68.5727C1383.6 68.8961 1383.73 68.9097 1384.5 68.6802C1384.99 68.5358 1385.46 68.3488 1385.54 68.2647C1385.63 68.1807 1385.62 64.992 1385.53 61.1786L1385.37 54.2455L1384.56 53.9034C1383.2 53.3264 1379.65 52.3588 1377.31 51.9277C1375.55 51.6034 1374.01 51.5195 1369.87 51.5241C1364.94 51.5295 1364.53 51.5617 1362.49 52.116C1356.57 53.7255 1352.18 57.0734 1349.89 61.7291C1348.67 64.2033 1348.25 66.1107 1348.26 69.0929C1348.28 73.3272 1349.43 76.453 1351.98 79.1837C1354.17 81.5335 1357.02 83.21 1361.87 85.0052C1365.69 86.4179 1369.63 88.3907 1371.13 89.6365C1372.01 90.3686 1372.7 91.2027 1373.21 92.1544C1373.94 93.5078 1373.98 93.6865 1373.98 95.8033C1373.98 97.8427 1373.92 98.1543 1373.28 99.5207C1371.59 103.091 1368.21 104.863 1363.79 104.501C1357.78 104.009 1353.55 100.026 1350.1 91.6196C1349.2 89.4267 1349.14 89.3812 1347.78 89.9016L1347.15 90.1405L1347.3 97.98C1347.44 104.938 1347.5 105.852 1347.83 106.106C1348.82 106.865 1355.22 108.385 1359.65 108.916C1363.1 109.328 1368.38 109.342 1370.98 108.946Z" fill="#166FB1"/>
<path fill-rule="evenodd" clip-rule="evenodd" d="M1325.88 108.925C1331.03 108.089 1336.1 105.614 1339.74 102.157C1341.73 100.264 1342.4 99.3505 1342.12 98.8717L1342.09 98.8262C1341.79 98.2996 1341.61 98.001 1341.37 97.9215C1341.05 97.8173 1340.61 98.0894 1339.59 98.7182L1339.52 98.7595C1336.51 100.612 1335 101.124 1331.46 101.487C1327.33 101.912 1323.52 101.22 1320 99.4059C1317.66 98.2021 1314.86 95.434 1313.46 92.9444C1311.55 89.5464 1310.52 85.5777 1310.21 80.4771C1310.08 78.3354 1310.11 77.8018 1310.36 77.6425C1310.53 77.5341 1317.94 77.4446 1326.94 77.443L1343.21 77.4395V76.7953C1343.21 75.3313 1342.73 71.396 1342.3 69.3333C1340.58 61.0375 1336.01 55.1222 1329.5 52.7428C1326.91 51.7957 1324.46 51.397 1321.24 51.397C1313.58 51.397 1307.34 53.9116 1302.5 58.936C1298.65 62.9419 1296.36 67.442 1294.96 73.767C1294.54 75.6732 1294.47 76.6642 1294.47 80.6672C1294.47 84.6408 1294.55 85.6658 1294.95 87.5037C1297.54 99.1784 1305.21 106.867 1316.22 108.836C1319.01 109.335 1323.13 109.373 1325.88 108.925ZM1310.91 67.4231C1310.5 69.4753 1310.09 73.4371 1310.26 73.708C1310.38 73.9046 1320.34 73.7735 1324.97 73.5146L1327.29 73.3855L1327.15 69.9036C1326.88 62.8496 1325.5 58.0842 1323.1 55.865C1322.21 55.0383 1321 54.517 1319.98 54.5144C1319.73 54.5137 1318.99 54.6733 1318.33 54.8689C1317.37 55.1534 1316.84 55.5222 1315.67 56.7053C1313.49 58.9047 1311.9 62.4765 1310.91 67.4231Z" fill="#166FB1"/>
<path d="M1669.96 22.9555C1669.96 22.9555 1665.26 19.3154 1650.03 13.7223C1636.67 8.80435 1626.46 7.6748 1626.46 7.6748L1626.51 36.8388C1626.51 49.1654 1612.58 62.2547 1588.79 62.2547H1588.11C1564.32 62.2547 1550.4 49.1654 1550.4 36.8388L1550.45 7.6748C1550.45 7.6748 1540.25 8.80367 1526.88 13.7223C1511.65 19.3154 1506.95 22.9555 1506.95 22.9555C1508.08 46.3453 1544.41 65.616 1588.45 65.6263H1588.46C1632.49 65.616 1668.84 46.3453 1669.96 22.9555Z" fill="#166FB1"/>
<path d="M1669.98 88.4469C1669.98 88.4469 1665.28 92.0768 1650.05 97.6747C1636.68 102.593 1626.48 103.717 1626.48 103.717L1626.53 74.5582C1626.53 62.2343 1612.6 49.1498 1588.81 49.1498L1588.48 49.1395H1588.47L1588.14 49.1498C1564.35 49.1498 1550.42 62.2343 1550.42 74.5582L1550.47 103.717C1550.47 103.717 1540.27 102.593 1526.9 97.6747C1511.68 92.0768 1506.97 88.4469 1506.97 88.4469C1508.1 65.0592 1544.44 45.7885 1588.48 45.7734C1632.51 45.7885 1668.86 65.0592 1669.98 88.4469ZM1514.88 130.638C1511.17 130.638 1511.11 127.812 1511.11 126.72V121.576C1511.11 121.256 1511.09 120.844 1511.75 120.844H1513.66C1514.29 120.844 1514.25 121.278 1514.25 121.576V126.72C1514.25 127.091 1514.31 128.072 1515.66 128.072H1518.88C1520.21 128.072 1520.28 127.091 1520.28 126.72V121.576C1520.28 121.277 1520.24 120.844 1520.87 120.844H1522.8C1523.5 120.844 1523.44 121.278 1523.44 121.576V126.72C1523.44 127.814 1523.37 130.638 1519.65 130.638M1532.67 130.009C1531.36 128.246 1529.48 126.03 1527.58 123.678V129.946C1527.58 130.225 1527.64 130.638 1526.99 130.638H1525.2C1524.56 130.638 1524.63 130.225 1524.63 129.946V121.563C1524.63 121.275 1524.6 120.841 1525.2 120.841H1528.69C1529.68 120.841 1531.08 122.821 1532 124.14C1532.72 125.13 1534.03 126.635 1534.91 127.77V121.563C1534.91 121.274 1534.87 120.84 1535.52 120.84H1537.47C1538.08 120.84 1538.05 121.274 1538.05 121.563V130.635H1534.47C1533.7 130.638 1533.37 130.69 1532.67 130.009ZM1539.23 130.638V120.853H1547.88C1548.41 120.853 1551.96 120.782 1551.96 124.513C1551.96 128.318 1552.36 130.638 1547.95 130.638H1543.29L1542.29 128.597V130.638M1547.42 128.06C1548.99 128.06 1548.87 126.556 1548.87 125.864C1548.87 123.555 1548.22 123.46 1547.19 123.46H1542.25V128.059L1547.42 128.06ZM1555.34 120.916H1563.31C1563.98 120.916 1563.89 121.357 1563.89 122.173C1563.89 122.935 1564 123.369 1563.31 123.369H1557.01C1556.84 123.369 1556.27 123.287 1556.27 123.874C1556.27 124.472 1556.16 124.71 1556.79 124.71H1562.36L1563.25 126.493C1563.38 126.74 1563.37 126.958 1562.88 126.958H1557.11L1556.22 125.214V127.782C1556.22 128.38 1556.75 128.267 1556.91 128.267H1563.45C1564.1 128.267 1564.04 128.721 1564.04 129.463C1564.04 130.257 1564.1 130.701 1563.45 130.701H1555.17C1554.48 130.701 1553.13 130.486 1553.13 128.328V122.936C1553.13 122.369 1553.43 120.916 1555.34 120.916ZM1566.04 120.853H1574.76C1575.93 120.853 1577.63 120.842 1577.63 123.999C1577.63 126.061 1577.19 126.164 1576.25 126.803C1577.83 127.072 1577.62 129.081 1577.62 130.122C1577.62 130.649 1577.42 130.637 1577.27 130.637H1574.71C1574.18 130.637 1574.31 129.793 1574.31 129.349C1574.31 128.153 1573.63 128.204 1573.37 128.204H1569.61C1569.25 127.575 1568.55 126.172 1568.55 126.172V130.235L1568.07 130.637H1565.49L1565.24 130.316V121.697C1565.24 121.09 1565.67 120.853 1566.04 120.853ZM1572.99 123.441H1569.1C1568.45 123.441 1568.49 123.656 1568.49 123.854V125.605H1572.48C1574.42 125.605 1574.42 125.121 1574.42 124.616C1574.42 123.606 1574.34 123.441 1572.99 123.441ZM1592.64 120.916C1593.28 120.916 1593.91 121.204 1594.58 122.513C1595.03 123.451 1598.2 129.174 1598.87 130.37V130.699H1595.57L1594.62 128.977H1590.61L1589.74 127.007C1589.49 127.409 1588.17 129.925 1587.71 130.698H1584.4V130.483C1585.08 129.214 1589.69 120.913 1589.69 120.913M1591.61 123.628L1589.99 126.565L1590.14 126.711H1593.14L1593.29 126.565L1591.76 123.617L1591.61 123.628ZM1600.96 120.853H1609.68C1610.85 120.853 1612.55 120.842 1612.55 123.999C1612.55 126.061 1612.12 126.164 1611.18 126.803C1612.76 127.072 1612.54 129.081 1612.54 130.122C1612.54 130.649 1612.34 130.637 1612.19 130.637H1609.63C1609.1 130.637 1609.23 129.793 1609.23 129.349C1609.23 128.153 1608.56 128.204 1608.3 128.204H1604.53C1604.17 127.575 1603.47 126.172 1603.47 126.172V130.235L1602.99 130.637H1600.42L1600.16 130.316V121.697C1600.16 121.09 1600.59 120.853 1600.96 120.853ZM1607.91 123.441H1604.02C1603.37 123.441 1603.41 123.656 1603.41 123.854V125.605H1607.41C1609.33 125.605 1609.33 125.121 1609.33 124.616C1609.33 123.606 1609.26 123.441 1607.91 123.441ZM1620.17 130.638C1619.52 129.422 1617.72 126.06 1616.5 123.854V129.958C1616.5 130.216 1616.54 130.638 1615.91 130.638H1614.15C1613.49 130.638 1613.54 130.216 1613.54 129.958V121.574C1613.54 121.275 1613.5 120.852 1614.15 120.852H1617.2C1617.66 120.852 1618.31 120.749 1619.03 122.203C1619.57 123.368 1620.73 125.792 1621.53 127.07C1622.34 125.792 1623.52 123.368 1624.07 122.203C1624.78 120.749 1625.41 120.852 1625.93 120.852H1628.97C1629.59 120.852 1629.51 121.275 1629.51 121.574V129.958C1629.51 130.216 1629.61 130.638 1628.97 130.638H1627.18C1626.53 130.638 1626.59 130.216 1626.59 129.958V123.854C1625.35 126.06 1623.56 129.42 1622.88 130.638M1633.43 130.658C1630.54 130.658 1630.67 127.566 1630.67 125.546C1630.67 123.709 1630.46 120.834 1634.08 120.803H1640.51C1644.14 120.803 1643.91 123.721 1643.91 125.546C1643.91 127.566 1644.05 130.658 1641.11 130.658M1639.25 128.142C1640.71 128.142 1640.66 126.627 1640.66 125.618C1640.66 124.699 1640.87 123.276 1638.97 123.276H1635.73C1633.83 123.276 1634.06 124.699 1634.06 125.618C1634.06 126.628 1633.97 128.142 1635.43 128.142H1639.25ZM1648.74 130.638C1645.04 130.638 1644.97 127.812 1644.97 126.72V121.576C1644.97 121.256 1644.95 120.844 1645.61 120.844H1647.53C1648.16 120.844 1648.11 121.278 1648.11 121.576V126.72C1648.11 127.091 1648.18 128.072 1649.53 128.072H1652.74C1654.07 128.072 1654.15 127.091 1654.15 126.72V121.576C1654.15 121.277 1654.11 120.844 1654.73 120.844H1656.66C1657.36 120.844 1657.3 121.278 1657.3 121.576V126.72C1657.3 127.814 1657.24 130.638 1653.51 130.638M1659.36 120.853H1668.09C1669.25 120.853 1670.95 120.842 1670.95 123.999C1670.95 126.061 1670.51 126.164 1669.57 126.803C1671.15 127.072 1670.94 129.081 1670.94 130.122C1670.94 130.649 1670.75 130.637 1670.59 130.637H1668.03C1667.51 130.637 1667.63 129.793 1667.63 129.349C1667.63 128.153 1666.95 128.204 1666.69 128.204H1662.93C1662.57 127.575 1661.87 126.172 1661.87 126.172V130.235L1661.38 130.637H1658.81L1658.56 130.316V121.697C1658.56 121.09 1658.99 120.853 1659.36 120.853ZM1666.3 123.441H1662.42C1661.77 123.441 1661.8 123.656 1661.8 123.854V125.605H1665.8C1667.73 125.605 1667.73 125.121 1667.73 124.616C1667.73 123.606 1667.65 123.441 1666.3 123.441Z" fill="#166FB1"/>
</svg>
